<svg xmlns="http://www.w3.org/2000/svg" viewBox="0 0 48 48"><g data-name="Food delivery"><path d="M15 5a1 1 0 1 0-.71-1.71A1 1 0 0 0 15 5zM9.47 21.85a1 1 0 0 0 1.06 0c.18-.12 4.47-2.85 4.47-7.1A4.88 4.88 0 0 0 10 10a4.88 4.88 0 0 0-5 4.75c0 4.25 4.29 6.98 4.47 7.1zM10 12c3.55 0 4.4 4.33 0 7.77C5.61 16.34 6.44 12 10 12zM41.93 21A8 8 0 0 0 35 14.07a1 1 0 1 0-2 0A8 8 0 0 0 26.07 21a1 1 0 1 0-.07 2c.31 0 .1-.48 1 3.24a1 1 0 0 0 1 .76h12a1 1 0 0 0 1-.76l.78-3.24c1.66 0 1.54-2 .15-2zM34 16a6 6 0 0 1 5.92 5H28.08A6 6 0 0 1 34 16zm5.22 9H28.78l-.5-2h11.44z"/><path d="M43 9H29V4a4 4 0 0 0-4-4H5a4 4 0 0 0-4 4v40a4 4 0 0 0 4 4h20a4 4 0 0 0 4-4V31.66l.92-.66H43a4 4 0 0 0 4-4V13a4 4 0 0 0-4-4zM5 2h20a2 2 0 0 1 2 2v1c-9.5 0-9.56-.24-9.92.61a2.26 2.26 0 0 1-4.16 0C12.56 4.77 12.47 5 3 5V4a2 2 0 0 1 2-2zm20 44H5a2 2 0 0 1-2-2v-2h24v2a2 2 0 0 1-2 2zm2-6H3V7h8.4a4.26 4.26 0 0 0 7.2 0H27v2h-2a4 4 0 0 0-4 4v14a4 4 0 0 0 2 3.45V34a1 1 0 0 0 1 1c.43 0 .36 0 3-1.91zm18-13a2 2 0 0 1-2 2H29.6c-.43 0-.39.05-4.6 3.06 0-2 .09-2.4-.2-2.81-.14-.2-.09-.14-.26-.25-2-1.3-1.54 1.07-1.54-16a2 2 0 0 1 2-2h18a2 2 0 0 1 2 2z"/><path d="M23 36H8.5a1.5 1.5 0 0 1 0-3h5a3.5 3.5 0 0 0 0-7H12a1 1 0 0 1-1-1v-1a1 1 0 0 0-2 0v1a3 3 0 0 0 3 3h1.5a1.5 1.5 0 0 1 0 3h-5a3.5 3.5 0 0 0 0 7H23a1 1 0 0 0 0-2zM10 16a1 1 0 0 0 0-2 1 1 0 0 0 0 2z"/></g></svg>